<svg xmlns="http://www.w3.org/2000/svg" width="57" height="96" fill="none" viewBox="0 0 57 96">
    <path fill="#1a2643" d="M14.55 7.275A7.274 7.274 0 1 1 7.28 0a7.273 7.273 0 0 1 7.27 7.275zM25.442 0a7.274 7.274 0 1 0 0 14.55 7.274 7.274 0 0 0 7.275-7.275A7.272 7.272 0 0 0 25.443 0zm18.164 14.546a7.274 7.274 0 0 0 7.275-7.275 7.274 7.274 0 1 0-7.275 7.275zM7.28 17.658a7.277 7.277 0 0 0-7.275 7.275 7.271 7.271 0 0 0 7.275 7.27 7.273 7.273 0 0 0 7.274-7.27c-.004-4.017-3.258-7.275-7.274-7.275zm18.164 0A7.277 7.277 0 0 0 18.757 27.8a7.173 7.173 0 0 1 13.38-.026 7.255 7.255 0 0 0 .577-2.846 7.266 7.266 0 0 0-7.271-7.271zm18.164 0a7.274 7.274 0 1 0 .006 14.547 7.274 7.274 0 0 0-.006-14.547zM7.28 35.316a7.274 7.274 0 1 0 0 14.55 7.274 7.274 0 0 0 0-14.55zm36.328 0a7.271 7.271 0 0 0-7.27 7.275 7.276 7.276 0 0 0 7.27 7.275 7.274 7.274 0 0 0 7.275-7.275 7.272 7.272 0 0 0-7.275-7.275zm9.36 19.368c-2.4-.258-4.519 1.1-4.751 3.034-.004 0 .221-2.066.221-2.066.21-1.954-1.579-3.75-3.997-4.012-2.419-.26-4.545 1.117-4.755 3.07l.109-1.004c.21-1.954-1.579-3.75-3.998-4.009-2.418-.259-4.544 1.118-4.755 3.071l-.352 3.274v-25.96c-.019-2.235-2.374-4.793-5.426-4.766-3.052.026-5.141 2.53-5.122 4.77v41.788l-2.048-13.147a6.837 6.837 0 0 0-5.924 7.646s1.035 9.502 2.452 13.668c2.385 5.587 10.215 6 10.424 9.592.21 3.592.375 6.367.375 6.367h24.494s-.01-4.698-.01-7.886c0-3.187 7.086-7.24 6.524-16.522-.067-1.155.54-12.896.54-12.896.202-1.961-1.586-3.757-4.001-4.012z"/>
</svg>
